<?xml version="1.0" encoding="UTF-8"?>
<svg version="1.1" xmlns="http://www.w3.org/2000/svg" width="38" height="38">
<path d="M0 0 C0.73541016 0.00202423 1.47082031 0.00404846 2.22851562 0.00613403 C2.97939453 0.00517731 3.73027344 0.00422058 4.50390625 0.00323486 C6.09440189 0.00255315 7.6849003 0.00440682 9.27539062 0.00857544 C11.71816217 0.01392386 14.16074984 0.00863019 16.60351562 0.00222778 C18.1451827 0.00288857 19.68684966 0.00416973 21.22851562 0.00613403 C21.96392578 0.0041098 22.69933594 0.00208557 23.45703125 0 C28.61356402 0.02399493 28.61356402 0.02399493 29.72851562 1.13894653 C29.82938774 3.64818807 29.86823595 6.12931037 29.86132812 8.63894653 C29.86228485 9.38982544 29.86324158 10.14070435 29.86422729 10.91433716 C29.86490901 12.5048328 29.86305534 14.09533121 29.85888672 15.68582153 C29.85353829 18.12859308 29.85883196 20.57118075 29.86523438 23.01394653 C29.86457359 24.55561361 29.86329243 26.09728057 29.86132812 27.63894653 C29.86335236 28.37435669 29.86537659 29.10976685 29.86746216 29.86746216 C29.84346723 35.02399493 29.84346723 35.02399493 28.72851562 36.13894653 C26.21927409 36.23981865 23.73815179 36.27866686 21.22851562 36.27175903 C20.47763672 36.27271576 19.72675781 36.27367249 18.953125 36.2746582 C17.36262936 36.27533991 15.77213095 36.27348625 14.18164062 36.26931763 C11.73886908 36.2639692 9.29628141 36.26926287 6.85351562 36.27566528 C5.31184855 36.2750045 3.77018159 36.27372333 2.22851562 36.27175903 C1.49310547 36.27378326 0.75769531 36.2758075 0 36.27789307 C-5.15653277 36.25389814 -5.15653277 36.25389814 -6.27148438 35.13894653 C-6.37235649 32.629705 -6.4112047 30.14858269 -6.40429688 27.63894653 C-6.4052536 26.88806763 -6.40621033 26.13718872 -6.40719604 25.36355591 C-6.40787776 23.77306027 -6.40602409 22.18256186 -6.40185547 20.59207153 C-6.39650704 18.14929999 -6.40180071 15.70671232 -6.40820312 13.26394653 C-6.40754234 11.72227946 -6.40626118 10.1806125 -6.40429688 8.63894653 C-6.40632111 7.90353638 -6.40834534 7.16812622 -6.41043091 6.41043091 C-6.38192715 0.28494684 -6.12548407 0.02850375 0 0 Z M-4.27148438 10.13894653 C-4.27148438 12.44894653 -4.27148438 14.75894653 -4.27148438 17.13894653 C6.28851563 17.13894653 16.84851563 17.13894653 27.72851562 17.13894653 C27.72851562 14.82894653 27.72851562 12.51894653 27.72851562 10.13894653 C27.39851563 10.79894653 27.06851563 11.45894653 26.72851562 12.13894653 C26.06851563 12.13894653 25.40851562 12.13894653 24.72851562 12.13894653 C24.39851563 11.47894653 24.06851562 10.81894653 23.72851562 10.13894653 C23.72851562 10.79894653 23.72851562 11.45894653 23.72851562 12.13894653 C23.06851562 12.13894653 22.40851562 12.13894653 21.72851562 12.13894653 C21.39851563 11.47894653 21.06851562 10.81894653 20.72851562 10.13894653 C20.72851562 10.79894653 20.72851562 11.45894653 20.72851562 12.13894653 C20.06851562 12.13894653 19.40851562 12.13894653 18.72851562 12.13894653 C18.39851563 11.47894653 18.06851562 10.81894653 17.72851562 10.13894653 C17.72851562 10.79894653 17.72851562 11.45894653 17.72851562 12.13894653 C13.76851562 12.13894653 9.80851562 12.13894653 5.72851562 12.13894653 C5.39851562 11.47894653 5.06851562 10.81894653 4.72851562 10.13894653 C4.72851562 10.79894653 4.72851562 11.45894653 4.72851562 12.13894653 C4.06851562 12.13894653 3.40851562 12.13894653 2.72851562 12.13894653 C2.39851562 11.47894653 2.06851562 10.81894653 1.72851562 10.13894653 C1.72851562 10.79894653 1.72851562 11.45894653 1.72851562 12.13894653 C1.06851562 12.13894653 0.40851562 12.13894653 -0.27148438 12.13894653 C-0.60148438 11.47894653 -0.93148438 10.81894653 -1.27148438 10.13894653 C-1.27148438 10.79894653 -1.27148438 11.45894653 -1.27148438 12.13894653 C-1.93148438 12.13894653 -2.59148438 12.13894653 -3.27148438 12.13894653 C-3.60148438 11.47894653 -3.93148438 10.81894653 -4.27148438 10.13894653 Z M-4.27148438 19.13894653 C-4.27148438 21.11894653 -4.27148438 23.09894653 -4.27148438 25.13894653 C6.28851563 25.13894653 16.84851563 25.13894653 27.72851562 25.13894653 C27.72851562 23.15894653 27.72851562 21.17894653 27.72851562 19.13894653 C17.16851562 19.13894653 6.60851562 19.13894653 -4.27148438 19.13894653 Z M-4.27148438 28.13894653 C-4.27148438 29.78894653 -4.27148438 31.43894653 -4.27148438 33.13894653 C-2.38829169 35.02213922 0.847817 34.26948938 3.35351562 34.27175903 C4.01561035 34.27271576 4.67770508 34.27367249 5.35986328 34.2746582 C6.76204524 34.2753398 8.16423033 34.27348695 9.56640625 34.26931763 C11.71947276 34.263969 13.87233065 34.26926323 16.02539062 34.27566528 C17.38476609 34.2750045 18.74414142 34.27372333 20.10351562 34.27175903 C21.34875 34.2706311 22.59398438 34.26950317 23.87695312 34.26834106 C26.62756993 34.4646678 26.62756993 34.4646678 27.72851562 33.13894653 C27.72851562 31.48894653 27.72851562 29.83894653 27.72851562 28.13894653 C17.16851562 28.13894653 6.60851562 28.13894653 -4.27148438 28.13894653 Z " fill="#5A5BFE" transform="translate(7.271484375,0.861053466796875)"/>
<path d="M0 0 C0.33 0 0.66 0 1 0 C1 2.31 1 4.62 1 7 C11.56 7 22.12 7 33 7 C33 4.69 33 2.38 33 0 C33.33 0 33.66 0 34 0 C34.19583915 4.14548415 34.38027842 8.2913967 34.5625 12.4375 C34.64661133 14.21350586 34.64661133 14.21350586 34.73242188 16.02539062 C34.78076172 17.15009766 34.82910156 18.27480469 34.87890625 19.43359375 C34.9260376 20.47572021 34.97316895 21.51784668 35.02172852 22.59155273 C35 25 35 25 34 26 C31.49075847 26.10087212 29.00963616 26.13972032 26.5 26.1328125 C25.74912109 26.13376923 24.99824219 26.13472595 24.22460938 26.13571167 C22.63411373 26.13639338 21.04361533 26.13453972 19.453125 26.13037109 C17.01035345 26.12502267 14.56776579 26.13031634 12.125 26.13671875 C10.58333293 26.13605797 9.04166597 26.1347768 7.5 26.1328125 C6.76458984 26.13483673 6.02917969 26.13686096 5.27148438 26.13894653 C0.11495161 26.11495161 0.11495161 26.11495161 -1 25 C-1.36669915 16.64141636 -1.09315403 8.29625828 0 0 Z M1 9 C1 10.98 1 12.96 1 15 C11.56 15 22.12 15 33 15 C33 13.02 33 11.04 33 9 C22.44 9 11.88 9 1 9 Z M1 18 C1 19.65 1 21.3 1 23 C2.88319268 24.88319268 6.11930137 24.13054285 8.625 24.1328125 C9.28709473 24.13376923 9.94918945 24.13472595 10.63134766 24.13571167 C12.03352961 24.13639326 13.4357147 24.13454042 14.83789062 24.13037109 C16.99095713 24.12502246 19.14381502 24.1303167 21.296875 24.13671875 C22.65625046 24.13605796 24.0156258 24.13477679 25.375 24.1328125 C26.62023437 24.13168457 27.86546875 24.13055664 29.1484375 24.12939453 C31.89905431 24.32572127 31.89905431 24.32572127 33 23 C33 21.35 33 19.7 33 18 C22.44 18 11.88 18 1 18 Z " fill="#C6CBFE" transform="translate(2,11)"/>
<path d="M0 0 C0.99 0.33 1.98 0.66 3 1 C2.67 1.33 2.34 1.66 2 2 C2 3.98 2 5.96 2 8 C-8.56 8 -19.12 8 -30 8 C-30 6.02 -30 4.04 -30 2 C-20.1 2 -10.2 2 0 2 C0 1.34 0 0.68 0 0 Z " fill="#91BCFE" transform="translate(33,1)"/>
<path d="M0 0 C0.33 0 0.66 0 1 0 C1.33 7.59 1.66 15.18 2 23 C11.9 23 21.8 23 32 23 C32.33 21.35 32.66 19.7 33 18 C33.33 18 33.66 18 34 18 C34.38063221 20.3260857 34.71269945 22.66055264 35 25 C33.2670702 26.7329298 31.03785664 26.12820046 28.72851562 26.13894653 C27.99310547 26.1369223 27.25769531 26.13489807 26.5 26.1328125 C25.74912109 26.13376923 24.99824219 26.13472595 24.22460938 26.13571167 C22.63411373 26.13639338 21.04361533 26.13453972 19.453125 26.13037109 C17.01035345 26.12502267 14.56776579 26.13031634 12.125 26.13671875 C10.58333293 26.13605797 9.04166597 26.1347768 7.5 26.1328125 C6.76458984 26.13483673 6.02917969 26.13686096 5.27148438 26.13894653 C0.11495161 26.11495161 0.11495161 26.11495161 -1 25 C-1.36669915 16.64141636 -1.09315403 8.29625828 0 0 Z " fill="#C561FE" transform="translate(2,11)"/>
<path d="M0 0 C10.56 0 21.12 0 32 0 C32 0.99 32 1.98 32 3 C21.44 3 10.88 3 0 3 C0 2.01 0 1.02 0 0 Z " fill="#B6B0FF" transform="translate(3,6)"/>
<path d="M0 0 C10.56 0 21.12 0 32 0 C31.67 0.99 31.34 1.98 31 3 C21.1 3 11.2 3 1 3 C0.67 2.01 0.34 1.02 0 0 Z " fill="#B9B7FE" transform="translate(3,10)"/>
<path d="M0 0 C1.29349365 0.00523682 2.5869873 0.01047363 3.91967773 0.01586914 C4.9496714 0.01799156 4.9496714 0.01799156 6.00047302 0.02015686 C8.20144949 0.0257706 10.40232557 0.03832532 12.60327148 0.05102539 C14.09220231 0.05603863 15.58113473 0.06060184 17.07006836 0.06469727 C20.72700223 0.07574446 24.38387707 0.09301826 28.04077148 0.11352539 C28.04077148 0.77352539 28.04077148 1.43352539 28.04077148 2.11352539 C18.14077148 2.11352539 8.24077148 2.11352539 -1.95922852 2.11352539 C-1.95922852 4.09352539 -1.95922852 6.07352539 -1.95922852 8.11352539 C-2.28922852 8.11352539 -2.61922852 8.11352539 -2.95922852 8.11352539 C-3.33986072 5.78743969 -3.67192796 3.45297275 -3.95922852 1.11352539 C-2.95922852 0.11352539 -2.95922852 0.11352539 0 0 Z " fill="#3A81FE" transform="translate(4.959228515625,0.886474609375)"/>
</svg>
